<svg xmlns="http://www.w3.org/2000/svg" version="1.1" xmlns:xlink="http://www.w3.org/1999/xlink" width="200" height="39" viewBox="0 0 200 49"><svg xml:space="preserve" width="200" height="49" data-version="2" data-id="lg_4madHoZGrmuy9CU8BM" viewBox="0 0 559 109" x="0" y="0"><rect width="60%" height="30%" fill="transparent"></rect><circle r="59.32" fill="#4c4c4c" transform="translate(59.17 54.5)scale(.9014)"></circle><path fill="#4c4c4c" d="M170.1 19.9v6.37h-13.92v50.05h13.92v6.28h-35.85v-6.28h13.92V26.27h-13.92V19.9z"></path><rect width="35.85" height="62.7" x="-17.93" y="-31.35" fill="none" rx="0" ry="0" transform="translate(152.68 51.75)"></rect><path fill="#4c4c4c" d="M188.58 82.6V34.64h6.55l.64 6.74q2.82-3.64 7.14-5.69 4.32-2.05 8.69-2.05 13.47 0 13.47 14.2V82.6h-7.65V53.48q0-5.37-.59-8.19-.59-2.82-2.32-4.19-1.73-1.36-5.28-1.36-3.91 0-7.37 2.37-3.46 2.36-5.64 5.64V82.6z"></path><rect width="36.49" height="48.96" x="-18.25" y="-24.48" fill="none" rx="0" ry="0" transform="translate(207.32 58.62)"></rect><path fill="#4c4c4c" d="M281.31 80.14q-2.46 1.64-5.97 2.55-3.5.91-6.96.91-7.55 0-11.83-3.96-4.27-3.96-4.27-10.42V40.65h-11.01v-6.01h11.01V23.81l7.64-.91v11.74h16.65l-1 6.01h-15.65v28.48q0 4.1 2.18 6.1 2.19 2 7.01 2 4.92 0 9.19-2.27z"></path><rect width="40.04" height="60.7" x="-20.02" y="-30.35" fill="none" rx="0" ry="0" transform="translate(261.79 53.75)"></rect><path fill="#4c4c4c" d="M303.87 61.31q.28 7.91 4.14 11.92 3.87 4 9.79 4 3.55 0 6.5-1.04 2.96-1.05 6.33-3.24l3.55 5.1q-3.37 2.64-7.69 4.1-4.33 1.45-8.69 1.45-10.38 0-16.16-6.78-5.77-6.78-5.77-18.15 0-7.19 2.54-12.88 2.55-5.69 7.28-8.92 4.74-3.23 11.01-3.23 9.1 0 14.34 6.33 5.23 6.32 5.23 17.24 0 2.09-.18 4.1zm12.93-21.39q-5.56 0-9.01 3.96-3.46 3.96-3.92 11.6h24.94q-.09-7.55-3.28-11.55-3.18-4.01-8.73-4.01"></path><rect width="40.4" height="49.96" x="-20.2" y="-24.98" fill="none" rx="0" ry="0" transform="translate(316.57 59.12)"></rect><path fill="#4c4c4c" d="M384.77 33.64q2.91 0 6.74 1l-1.1 16.29h-6.18V40.65h-.46q-11.1 0-15.74 15.83v20.21h9.74v5.91h-24.94v-5.91h7.55V40.56h-7.55v-5.92h13.29l1.45 11.38q2.92-6.19 6.96-9.28 4.05-3.1 10.24-3.1"></path><rect width="38.68" height="48.96" x="-19.34" y="-24.48" fill="none" rx="0" ry="0" transform="translate(372.67 58.62)"></rect><path fill="#4c4c4c" d="M447.02 34.64 429.54 82.6h-8.82l-17.38-47.96h8.19l13.83 41.04 13.65-41.04z"></path><rect width="43.68" height="47.96" x="-21.84" y="-23.98" fill="none" rx="0" ry="0" transform="translate(425.68 59.12)"></rect><path fill="#4c4c4c" d="M491.97 66.58h-24.84l-5.01 16.02h-7.82l20.47-62.7h10.01l20.39 62.7h-8.19zm-22.75-6.55h20.66l-10.29-33.39z"></path><rect width="50.87" height="62.7" x="-25.43" y="-31.35" fill="none" rx="0" ry="0" transform="translate(480.24 51.75)"></rect><path fill="#4c4c4c" d="M552.3 19.9v6.37h-13.92v50.05h13.92v6.28h-35.85v-6.28h13.92V26.27h-13.92V19.9z"></path><rect width="35.85" height="62.7" x="-17.93" y="-31.35" fill="none" rx="0" ry="0" transform="translate(534.88 51.75)"></rect><path fill="#ffffff" d="M72.81 33.15v4.2h-9.18v33h9.18v4.14H49.17v-4.14h9.18v-33h-9.18v-4.2z" paint-order="stroke"></path><rect width="23.64" height="41.34" x="-11.82" y="-20.67" fill="none" rx="0" ry="0" transform="translate(61.49 54.32)"></rect></svg></svg>